<?xml version="1.0" encoding="utf-8"?>
<!-- Generator: Adobe Illustrator 24.1.2, SVG Export Plug-In . SVG Version: 6.00 Build 0)  -->
<svg version="1.1" id="Layer_1" xmlns="http://www.w3.org/2000/svg" xmlns:xlink="http://www.w3.org/1999/xlink" x="0px" y="0px"
	 viewBox="0 0 150 150" style="enable-background:new 0 0 150 150;" xml:space="preserve">
<path d="M47.9,24.4h74.6c1.8,0,3.2,1.4,3.2,3.2v74.6c0,1.8-1.4,3.2-3.2,3.2h-3.8c-1.8,0-3.2-1.4-3.2-3.2V49.2c0-2.9-3.4-4.3-5.5-2.3
	l-76.1,76.4c-1.2,1.3-3.3,1.3-4.5,0l-2.7-2.7c-1.2-1.2-1.2-3.3,0-4.5L103,40c2-2,0.6-5.5-2.3-5.5H47.9c-1.8,0-3.2-1.4-3.2-3.2v-3.8
	C44.7,25.8,46.1,24.4,47.9,24.4z"/>
</svg>
