<?xml version="1.0" encoding="utf-8"?>
<!-- Generator: Adobe Illustrator 24.1.2, SVG Export Plug-In . SVG Version: 6.00 Build 0)  -->
<svg version="1.1" id="Layer_1" xmlns="http://www.w3.org/2000/svg" xmlns:xlink="http://www.w3.org/1999/xlink" x="0px" y="0px"
	 viewBox="0 0 150 150" style="enable-background:new 0 0 150 150;" xml:space="preserve">
<path d="M106.8,27.5v3.8c0,1.8-1.4,3.2-3.2,3.2H50.8c-2.9,0-4.3,3.5-2.3,5.5l76.3,76.1c1.2,1.2,1.2,3.3,0,4.5l-2.7,2.7
	c-1.2,1.3-3.3,1.3-4.5,0L41.5,46.9c-2.1-2-5.5-0.6-5.5,2.3v53c0,1.8-1.4,3.2-3.2,3.2H29c-1.8,0-3.2-1.4-3.2-3.2l0-74.6
	c0-1.8,1.4-3.2,3.2-3.2h74.6C105.4,24.4,106.8,25.8,106.8,27.5z"/>
</svg>
